# xmcd
#
# Track frame offsets:
#	150
#	13493
#	27984
#	42833
#	55417
#	72990
#	91412
#	107649
#	123262
#	136545
#	155968
#	170883
#	190464
#	203366
#
# Disc length: 2885 seconds
#
# Revision: 1
# Processed by: cddbd v1.5.2PL0 Copyright (c) Steve Scherf et al.
# Submitted via: EZCDAudioConverter 5.2.1.1
#
DISCID=c70b430e
DTITLE=Alison Krauss - Windy City (Deluxe Edition)
DYEAR=2017
DGENRE=Country
TTITLE0=Losing You
TTITLE1=It’s Goodbye and So Long to You
TTITLE2=Windy City
TTITLE3=I Never Cared for You
TTITLE4=River in the Rain
TTITLE5=Dream of Me
TTITLE6=Gentle on My Mind
TTITLE7=All Alone Am I
TTITLE8=Poison Love
TTITLE9=You Don’t Know Me
TTITLE10=Windy City (live)
TTITLE11=River in the Rain (live)
TTITLE12=Losing You (live)
TTITLE13=I Never Cared for You (live)
EXTD=
EXTT0=
EXTT1=
EXTT2=
EXTT3=
EXTT4=
EXTT5=
EXTT6=
EXTT7=
EXTT8=
EXTT9=
EXTT10=
EXTT11=
EXTT12=
EXTT13=
PLAYORDER=
